<svg width="33" height="34" viewBox="0 0 33 34" fill="none" xmlns="http://www.w3.org/2000/svg">
<path d="M16.125 1.875L16.9115 9.45159C17.2821 13.0214 20.1036 15.8429 23.6734 16.2135L31.25 17L23.6734 17.7865C20.1036 18.1571 17.2821 20.9786 16.9115 24.5484L16.125 32.125L15.3385 24.5484C14.9679 20.9786 12.1464 18.1571 8.57658 17.7865L1 17L8.57659 16.2135C12.1464 15.8429 14.9679 13.0214 15.3385 9.45158L16.125 1.875Z" fill="#FFFBA8"/>
<path d="M16.125 1.875L17.1178 1.77194C17.065 1.26333 16.6363 0.876882 16.125 0.876882C15.6137 0.876882 15.185 1.26333 15.1322 1.77194L16.125 1.875ZM31.25 17L31.3531 17.9928C31.8617 17.94 32.2481 17.5113 32.2481 17C32.2481 16.4887 31.8617 16.06 31.3531 16.0072L31.25 17ZM16.125 32.125L15.1322 32.2281C15.185 32.7367 15.6137 33.1231 16.125 33.1231C16.6363 33.1231 17.065 32.7367 17.1178 32.2281L16.125 32.125ZM1 17L0.896941 16.0072C0.388329 16.06 0.00188184 16.4887 0.00188184 17C0.00188184 17.5113 0.388329 17.94 0.896941 17.9928L1 17ZM8.57659 16.2135L8.47353 15.2207L8.57659 16.2135ZM15.3385 9.45158L14.3457 9.34853L15.3385 9.45158ZM15.3385 24.5484L14.3457 24.6515L15.3385 24.5484ZM8.57658 17.7865L8.67964 16.7937L8.57658 17.7865ZM23.6734 17.7865L23.5704 16.7937L23.6734 17.7865ZM16.9115 24.5484L17.9043 24.6515L16.9115 24.5484ZM16.9115 9.45159L15.9187 9.55465L16.9115 9.45159ZM23.6734 16.2135L23.7765 15.2207L23.6734 16.2135ZM15.1322 1.97806L15.9187 9.55465L17.9043 9.34853L17.1178 1.77194L15.1322 1.97806ZM23.5704 17.2063L31.1469 17.9928L31.3531 16.0072L23.7765 15.2207L23.5704 17.2063ZM31.1469 16.0072L23.5704 16.7937L23.7765 18.7793L31.3531 17.9928L31.1469 16.0072ZM15.9187 24.4454L15.1322 32.0219L17.1178 32.2281L17.9043 24.6515L15.9187 24.4454ZM17.1178 32.0219L16.3313 24.4454L14.3457 24.6515L15.1322 32.2281L17.1178 32.0219ZM8.67964 16.7937L1.10306 16.0072L0.896941 17.9928L8.47353 18.7793L8.67964 16.7937ZM1.10306 17.9928L8.67965 17.2063L8.47353 15.2207L0.896941 16.0072L1.10306 17.9928ZM16.3313 9.55464L17.1178 1.97806L15.1322 1.77194L14.3457 9.34853L16.3313 9.55464ZM8.67965 17.2063C12.7191 16.7869 15.9119 13.5941 16.3313 9.55464L14.3457 9.34853C14.0239 12.4486 11.5736 14.8989 8.47353 15.2207L8.67965 17.2063ZM16.3313 24.4454C15.9119 20.4059 12.7191 17.2131 8.67964 16.7937L8.47353 18.7793C11.5736 19.1011 14.0239 21.5514 14.3457 24.6515L16.3313 24.4454ZM23.5704 16.7937C19.5309 17.2131 16.3381 20.4059 15.9187 24.4454L17.9043 24.6515C18.2261 21.5514 20.6764 19.1011 23.7765 18.7793L23.5704 16.7937ZM15.9187 9.55465C16.3381 13.5941 19.5309 16.7869 23.5704 17.2063L23.7765 15.2207C20.6764 14.8989 18.2261 12.4486 17.9043 9.34853L15.9187 9.55465Z" fill="#FFFBA8"/>
</svg>
