<svg width="194" height="33" viewBox="0 0 194 33" fill="none" xmlns="http://www.w3.org/2000/svg">
<path d="M71.5347 9.42383C75.9088 9.42383 78.8577 11.1686 78.8577 14.5843V15.3952H74.9259V14.5843C74.9259 13.2082 73.6481 12.5201 71.5347 12.5201H71.0924C68.9299 12.5201 67.7013 13.159 67.7013 14.0928V14.3385C67.7013 15.4689 68.6842 15.7884 72.6651 16.4519C77.1621 17.2628 79.1526 18.5898 79.1526 21.3666V21.6123C79.1526 24.3891 76.6461 26.3796 71.6085 26.3796H71.1416C66.0548 26.3796 63.4746 24.3646 63.4746 20.9488V20.1871H67.4064V20.9488C67.4064 22.6936 68.7579 23.2588 71.1661 23.2588H71.6085C73.8938 23.2588 75.1716 22.7181 75.1716 21.6615V21.4403C75.1716 20.3837 73.9921 19.9168 70.0358 19.2778C65.8828 18.6144 63.7203 17.3611 63.7203 14.5351V14.2157C63.7203 11.1686 66.5217 9.42383 71.0924 9.42383H71.5347Z" fill="white"/>
<path d="M91.1712 26.1336V24.4872H90.6552C89.8934 25.6421 88.4927 26.3793 86.5268 26.3793H86.1091C83.0619 26.3793 81.3418 24.7329 81.3418 21.1452V13.5273H85.2736V20.4325C85.2736 22.1772 86.1828 23.1356 88.0012 23.1356H88.419C90.2374 23.1356 91.1712 22.1772 91.1712 20.4325V13.5273H95.103V26.1336H91.1712Z" fill="white"/>
<path d="M101.885 13.527V15.0751H102.401C103.31 13.9447 104.662 13.2812 106.554 13.2812H106.996C110.191 13.2812 112.525 15.0751 112.525 19.1052V20.555C112.525 24.5851 110.191 26.379 106.996 26.379H106.554C104.613 26.379 103.286 25.6934 102.401 24.536H101.885V32.0309H97.9531V13.527H101.885ZM101.885 19.056V20.5796C101.885 22.4226 103.138 23.3073 105.006 23.3073H105.448C107.34 23.3073 108.593 22.3981 108.593 20.5796V19.056C108.593 17.2622 107.34 16.3529 105.448 16.3529H105.006C103.138 16.3529 101.885 17.2376 101.885 19.056Z" fill="white"/>
<path d="M122.059 13.2817C126.064 13.2817 128.939 15.2231 128.939 19.1548V20.7521H118.373V20.8996C118.373 22.718 119.528 23.6272 121.592 23.6272H122.059C123.779 23.6272 124.86 23.1358 125.204 21.9316H128.817C128.473 24.5364 126.31 26.3795 122.059 26.3795H121.592C117.586 26.3795 114.662 24.5119 114.662 20.5801V19.1548C114.662 15.2231 117.562 13.2817 121.592 13.2817H122.059ZM118.397 18.2702H125.204C125.057 16.8203 123.853 16.034 122.034 16.034H121.567C119.626 16.034 118.545 16.8203 118.397 18.2702Z" fill="white"/>
<path d="M135.428 13.527V14.9768H135.919C136.657 13.871 137.787 13.2812 139.507 13.2812C142.21 13.2812 143.635 14.6328 143.635 18.1714V19.0069H139.999V18.4909C139.999 17.1885 139.261 16.5004 137.713 16.5004C136.165 16.5004 135.428 17.1885 135.428 18.4909V26.1332H131.496V13.527H135.428Z" fill="white"/>
<path d="M159.851 7.94922V26.1337H155.92V24.5364H155.379C154.494 25.6938 153.192 26.3794 151.251 26.3794H150.784C147.589 26.3794 145.279 24.6101 145.279 20.5555V19.1056C145.279 15.0756 147.589 13.2817 150.784 13.2817H151.251C153.143 13.2817 154.47 13.9452 155.379 15.0756H155.92V7.94922H159.851ZM149.211 19.0565V20.58C149.211 22.3739 150.464 23.3077 152.332 23.3077H152.774C154.666 23.3077 155.92 22.3985 155.92 20.58V19.0565C155.92 17.2626 154.666 16.3534 152.774 16.3534H152.332C150.464 16.3534 149.211 17.2872 149.211 19.0565Z" fill="white"/>
<path d="M169.534 13.2812C173.982 13.2812 175.997 14.9768 175.997 17.8519V26.1332H172.065V24.536H171.475C170.492 25.8162 169.091 26.379 166.954 26.379C164.3 26.379 162.383 25.2019 162.383 22.5701C162.383 20.0144 164.078 18.5154 168.01 18.5154H172.065V17.8519C172.065 16.5987 171.205 16.0089 169.509 16.0089H169.067C167.445 16.0089 166.511 16.5741 166.511 17.8028H162.653C162.653 14.9523 164.84 13.2812 169.067 13.2812H169.534ZM166.265 22.1769C166.265 23.0124 166.953 23.5284 168.6 23.5284C170.246 23.5284 172.065 22.9387 172.065 21.1448V20.7762H168.551C166.904 20.7762 166.265 21.2431 166.265 22.1769Z" fill="white"/>
<path d="M185.949 13.2812C190.053 13.2812 193.002 15.2471 193.002 19.1052V20.555C193.002 24.4622 190.053 26.379 185.949 26.379H185.482C181.354 26.379 178.43 24.4377 178.43 20.555V19.1052C178.43 15.2471 181.354 13.2812 185.482 13.2812H185.949ZM182.361 19.056V20.5796C182.361 22.2506 183.32 23.3073 185.482 23.3073H185.949C188.112 23.3073 189.07 22.2506 189.07 20.5796V19.056C189.07 17.385 188.112 16.353 185.949 16.353H185.482C183.32 16.353 182.361 17.385 182.361 19.056Z" fill="white"/>
<path d="M37.968 7.22798L40.9274 19.5828C41.2518 20.937 40.2253 22.2384 38.8328 22.2384H12.1425C9.59998 22.2384 7.32802 20.6507 6.45401 18.2631L6.21159 17.6009C6.08297 17.2496 6.34306 16.8773 6.71726 16.8773H24.1481C24.3545 16.8773 24.5218 16.71 24.5218 16.5036C24.5218 14.9555 23.2668 13.7004 21.7187 13.7004H9.01701C6.47448 13.7004 4.20254 12.1127 3.32852 9.72514L3.11033 9.1291C2.9817 8.77777 3.24181 8.40559 3.61597 8.40559H20.177C20.3833 8.40559 20.5507 8.23824 20.5507 8.0318C20.5507 6.48367 19.2957 5.22866 17.7475 5.22866H5.91572C3.37322 5.22866 1.10126 3.64097 0.227246 1.2534L0.0332865 0.72357C-0.0953355 0.37218 0.164768 0 0.538929 0H28.8042C33.1628 0 36.9527 2.98926 37.968 7.22798Z" fill="url(#paint0_linear_2_1904)"/>
<path d="M48.4462 10.9056L52.5964 28.73C52.9111 30.0807 51.8857 31.3722 50.4989 31.3722H22.6606C20.0239 31.3722 17.6901 29.6667 16.8892 27.1547L16.6071 26.27C16.441 25.749 16.8298 25.2169 17.3766 25.2169H42.7969C44.1914 25.2169 45.2183 23.9118 44.8902 22.5563L41.1771 7.21945C41.0541 6.71113 41.4391 6.22168 41.9621 6.22168H42.5463C45.3627 6.22168 47.8075 8.16262 48.4462 10.9056Z" fill="url(#paint1_linear_2_1904)"/>
<defs>
<linearGradient id="paint0_linear_2_1904" x1="20.4845" y1="0" x2="20.4845" y2="22.2384" gradientUnits="userSpaceOnUse">
<stop stop-color="#FFC803"/>
<stop offset="1" stop-color="#FFA903"/>
</linearGradient>
<linearGradient id="paint1_linear_2_1904" x1="34.5602" y1="6.22168" x2="34.5602" y2="31.3722" gradientUnits="userSpaceOnUse">
<stop stop-color="#FF7421"/>
<stop offset="1" stop-color="#EC5901"/>
</linearGradient>
</defs>
</svg>
