<svg width="33" height="34" fill="none" xmlns="http://www.w3.org/2000/svg"><path d="M16.125 1.875l.787 7.577a7.586 7.586 0 006.761 6.761L31.25 17l-7.577.787a7.586 7.586 0 00-6.761 6.761l-.787 7.577-.787-7.577a7.586 7.586 0 00-6.761-6.761L1 17l7.577-.787a7.586 7.586 0 006.761-6.761l.787-7.577z" fill="#FFFBA8"/><path d="M16.125 1.875l.993-.103a.998.998 0 00-1.986 0l.993.103zM31.25 17l.103.993a.998.998 0 000-1.986L31.25 17zM16.125 32.125l-.993.103a.998.998 0 001.986 0l-.993-.103zM1 17l-.103-.993a.998.998 0 000 1.986L1 17zm7.577-.787l-.103-.992.103.992zm6.761-6.761l-.992-.103.992.103zm0 15.096l-.992.104.992-.104zm-6.761-6.761l.103-.993-.103.992zm15.096 0l-.103-.993.103.992zm-6.761 6.761l.992.104-.992-.104zm0-15.096l-.993.103.992-.103zm6.761 6.761l.104-.992-.104.992zm-8.54-14.235l.786 7.577 1.985-.206-.786-7.577-1.986.206zm8.437 15.228l7.577.787.206-1.986-7.577-.786-.206 1.985zm7.577-1.199l-7.577.787.206 1.985 7.577-.786-.206-1.986zm-15.228 8.438l-.787 7.577 1.986.206.786-7.577-1.985-.206zm1.199 7.577l-.787-7.577-1.985.206.786 7.577 1.986-.206zM8.68 16.794l-7.577-.787-.206 1.986 7.577.786.206-1.985zm-7.577 1.199l7.577-.787-.206-1.985-7.577.786.206 1.986zm15.228-8.438l.787-7.577-1.986-.206-.786 7.577 1.985.206zM8.68 17.206a8.584 8.584 0 007.651-7.651l-1.985-.206a6.588 6.588 0 01-5.872 5.872l.206 1.985zm7.651 7.24a8.584 8.584 0 00-7.651-7.652l-.206 1.985a6.588 6.588 0 015.872 5.872l1.985-.206zm7.24-7.652a8.584 8.584 0 00-7.652 7.651l1.985.206a6.588 6.588 0 015.872-5.872l-.206-1.985zm-7.652-7.24a8.584 8.584 0 007.651 7.652l.206-1.985a6.588 6.588 0 01-5.872-5.872l-1.985.206z" fill="#FFFBA8"/></svg>