<svg width="160" height="160" fill="none" xmlns="http://www.w3.org/2000/svg"><rect x="1" y="1" width="158" height="158" rx="39" fill="#171E25"/><g filter="url(#filter0_d_2_2393)"><path d="M52 79.978C52 64.522 64.522 52 79.978 52c15.456 0 27.977 12.522 27.977 27.978 0 15.456-12.521 27.977-27.977 27.977C64.522 107.923 52 95.401 52 79.978z" fill="#F7F7F7"/><path d="M52 79.978C52 64.522 64.522 52 79.978 52c15.456 0 27.977 12.522 27.977 27.978 0 15.456-12.521 27.977-27.977 27.977C64.522 107.923 52 95.401 52 79.978z" fill="url(#paint0_linear_2_2393)"/><path d="M93.012 77.99a.857.857 0 00-.803-.557H81.88l5.958-11.586a.855.855 0 00-1.32-1.039l-6.285 5.428-12.537 10.828a.855.855 0 00.559 1.503h10.33l-5.958 11.586a.854.854 0 001.32 1.04l6.285-5.43 12.537-10.826a.856.856 0 00.244-.947z" fill="#10151A"/></g><rect x="1" y="1" width="158" height="158" rx="39" stroke="#2A3744" stroke-width="2"/><defs><linearGradient id="paint0_linear_2_2393" x1="79.978" y1="52" x2="79.978" y2="107.955" gradientUnits="userSpaceOnUse"><stop stop-color="#FFCC4A"/><stop offset="1" stop-color="#FFAC32"/></linearGradient><filter id="filter0_d_2_2393" x="5" y="5" width="150" height="150" filterUnits="userSpaceOnUse" color-interpolation-filters="sRGB"><feFlood flood-opacity="0" result="BackgroundImageFix"/><feColorMatrix in="SourceAlpha" values="0 0 0 0 0 0 0 0 0 0 0 0 0 0 0 0 0 0 127 0" result="hardAlpha"/><feOffset/><feGaussianBlur stdDeviation="23.5"/><feComposite in2="hardAlpha" operator="out"/><feColorMatrix values="0 0 0 0 1 0 0 0 0 0.67451 0 0 0 0 0.196078 0 0 0 0.3 0"/><feBlend in2="BackgroundImageFix" result="effect1_dropShadow_2_2393"/><feBlend in="SourceGraphic" in2="effect1_dropShadow_2_2393" result="shape"/></filter></defs></svg>