<svg width="160" height="160" fill="none" xmlns="http://www.w3.org/2000/svg"><rect x="1" y="1" width="158" height="158" rx="39" fill="#171E25"/><g filter="url(#filter0_d_2_2382)"><g clip-path="url(#clip0_2_2382)"><path d="M108 80c0 15.463-12.537 28-28 28S52 95.463 52 80s12.537-28 28-28c15.466 0 28 12.537 28 28z" fill="url(#paint0_linear_2_2382)"/><path d="M65.813 80.94l.121-.189 7.284-11.395a.249.249 0 01.437.032c1.217 2.727 2.267 6.119 1.775 8.23-.21.869-.785 2.046-1.432 3.133a5.762 5.762 0 01-.273.463.248.248 0 01-.208.11h-7.49a.249.249 0 01-.214-.383z" fill="#10151A"/><path d="M98.28 83.058v1.804a.26.26 0 01-.154.236c-.564.241-2.495 1.127-3.297 2.243-2.048 2.851-3.613 6.928-7.112 6.928H73.124c-5.173 0-9.364-4.206-9.364-9.396v-.167a.25.25 0 01.25-.25h8.136c.16 0 .279.15.264.308-.057.53.04 1.07.29 1.562a2.863 2.863 0 002.567 1.594h4.027v-3.145h-3.981a.256.256 0 01-.207-.402c.043-.066.092-.136.144-.213.376-.535.914-1.367 1.45-2.313a18.21 18.21 0 001.004-2.005c.057-.124.103-.25.149-.374.078-.219.158-.423.216-.627.057-.173.103-.354.15-.524a8.105 8.105 0 00.192-1.835c0-.25-.011-.512-.034-.763a9.881 9.881 0 00-.08-.82 8.537 8.537 0 00-.113-.73 12.33 12.33 0 00-.23-1.093l-.032-.138c-.069-.25-.126-.49-.207-.74-.227-.785-.49-1.55-.765-2.266-.1-.285-.216-.558-.331-.832-.17-.411-.342-.785-.5-1.14-.081-.16-.15-.307-.22-.456a13.72 13.72 0 00-.238-.501c-.058-.124-.124-.239-.17-.354L75 65.74a.16.16 0 01.181-.233l3.079.834h.008c.006 0 .009.003.012.003l.405.112.446.127.164.046v-1.83a1.59 1.59 0 011.582-1.599c.438 0 .835.178 1.12.469.284.29.463.687.463 1.13v2.716l.328.092a.29.29 0 01.075.037c.08.06.195.15.342.26.115.092.239.204.388.319.296.239.65.546 1.039.9a5.5 5.5 0 01.296.273c.5.466 1.061 1.013 1.597 1.617.15.17.296.343.445.524.15.184.308.365.446.546.182.242.377.492.547.754.08.124.172.25.25.374.219.33.412.673.596 1.016.077.158.158.33.227.5.204.457.365.923.469 1.39.031.1.054.21.066.307v.023c.035.138.046.285.058.435a4.643 4.643 0 01-.25 2.036c-.07.196-.139.4-.228.593-.173.4-.377.8-.619 1.174-.077.138-.17.285-.261.423-.101.146-.204.284-.297.42a8.782 8.782 0 01-.4.515c-.123.17-.25.34-.388.489-.192.227-.377.443-.57.65a5.921 5.921 0 01-.365.397c-.124.138-.25.262-.365.377-.193.192-.354.342-.49.466l-.316.29a.258.258 0 01-.17.063h-2.45v3.145h3.084c.69 0 1.346-.245 1.875-.694.181-.158.973-.842 1.907-1.875a.24.24 0 01.118-.072l8.518-2.463a.251.251 0 01.32.242z" fill="#10151A"/></g></g><rect x="1" y="1" width="158" height="158" rx="39" stroke="#2A3744" stroke-width="2"/><defs><linearGradient id="paint0_linear_2_2382" x1="80" y1="52" x2="80" y2="108" gradientUnits="userSpaceOnUse"><stop stop-color="#3E99F3"/><stop offset="1" stop-color="#2081E2"/></linearGradient><clipPath id="clip0_2_2382"><rect x="52" y="52" width="56" height="56" rx="28" fill="#fff"/></clipPath><filter id="filter0_d_2_2382" x="5" y="5" width="150" height="150" filterUnits="userSpaceOnUse" color-interpolation-filters="sRGB"><feFlood flood-opacity="0" result="BackgroundImageFix"/><feColorMatrix in="SourceAlpha" values="0 0 0 0 0 0 0 0 0 0 0 0 0 0 0 0 0 0 127 0" result="hardAlpha"/><feOffset/><feGaussianBlur stdDeviation="23.5"/><feComposite in2="hardAlpha" operator="out"/><feColorMatrix values="0 0 0 0 0.12549 0 0 0 0 0.505882 0 0 0 0 0.886275 0 0 0 0.3 0"/><feBlend in2="BackgroundImageFix" result="effect1_dropShadow_2_2382"/><feBlend in="SourceGraphic" in2="effect1_dropShadow_2_2382" result="shape"/></filter></defs></svg>