<svg width="51" height="50" fill="none" xmlns="http://www.w3.org/2000/svg"><path d="M25.928.622C12.08.622.855 11.537.855 25c0 13.464 11.226 24.378 25.073 24.378S51 38.464 51 25C51 11.537 39.776.623 25.927.623zm11.498 35.16c-.45.718-1.413.943-2.15.505-5.887-3.499-13.297-4.29-22.025-2.35-.84.187-1.679-.326-1.87-1.143-.193-.818.332-1.633 1.175-1.82 9.55-2.122 17.743-1.209 24.352 2.718.736.44.97 1.374.517 2.09zm3.069-6.637c-.567.894-1.77 1.175-2.69.625-6.737-4.027-17.012-5.193-24.983-2.84-1.034.303-2.126-.263-2.44-1.267-.31-1.005.272-2.064 1.304-2.37 9.106-2.686 20.425-1.385 28.164 3.239.92.55 1.21 1.72.644 2.613zm.263-6.912c-8.082-4.667-21.413-5.096-29.128-2.82-1.239.366-2.549-.314-2.924-1.519-.376-1.205.323-2.478 1.563-2.844 8.856-2.614 23.579-2.109 32.882 3.261 1.115.643 1.48 2.042.82 3.124-.659 1.084-2.102 1.441-3.213.798z" fill="#2EBD59"/></svg>