<svg width="59" height="40" fill="none" xmlns="http://www.w3.org/2000/svg"><path d="M57.265 6.259a7.187 7.187 0 00-5.077-5.035C47.681 0 29.653 0 29.653 0S11.625 0 7.118 1.176c-2.42.66-4.412 2.636-5.076 5.083C.855 10.729.855 20 .855 20s0 9.318 1.187 13.741a7.188 7.188 0 005.076 5.035C11.672 40 29.653 40 29.653 40s18.028 0 22.535-1.176a7.187 7.187 0 005.077-5.036c1.186-4.47 1.186-13.74 1.186-13.74s.047-9.319-1.186-13.79z" fill="red"/><path d="M23.912 11.435v17.13L38.904 20l-14.992-8.565z" fill="#fff"/></svg>