<svg width="56" height="56" fill="none" xmlns="http://www.w3.org/2000/svg"><rect width="56" height="56" rx="28" fill="#77E6FF" fill-opacity=".15"/><path d="M39.665 18.678c-1.166.572-2.31.804-3.5 1.155-1.307-1.475-3.246-1.557-5.11-.86-1.863.698-3.083 2.404-3.056 4.36V24.5c-3.786.097-7.158-1.628-9.334-4.667 0 0-4.879 8.672 4.667 12.834-2.184 1.454-4.362 2.436-7 2.333 3.86 2.103 8.065 2.827 11.706 1.77 4.177-1.214 7.61-4.344 8.927-9.033.392-1.425.588-2.899.58-4.378-.003-.29 1.761-3.234 2.12-4.682v.001z" stroke="#77E6FF" stroke-width="2.1" stroke-linecap="round" stroke-linejoin="round"/></svg>