<svg width="56" height="56" fill="none" xmlns="http://www.w3.org/2000/svg"><rect width="56" height="56" rx="28" fill="#F78787" fill-opacity=".15"/><g clip-path="url(#clip0_2_1342)"><path fill-rule="evenodd" clip-rule="evenodd" d="M17.917 24.266a3.858 3.858 0 013.858-3.858h12.447a3.858 3.858 0 013.858 3.858v7.468a3.858 3.858 0 01-3.858 3.858H21.775a3.858 3.858 0 01-3.858-3.858v-7.468zm3.858-6.098a6.099 6.099 0 00-6.098 6.098v7.468a6.099 6.099 0 006.099 6.099h12.446a6.099 6.099 0 006.099-6.099v-7.468a6.099 6.099 0 00-6.1-6.098H21.777zm4.313 5.137a1.12 1.12 0 00-1.697.96v7.469a1.12 1.12 0 001.697.96l6.223-3.734a1.12 1.12 0 000-1.92l-6.223-3.735zM29.558 28l-2.926 1.755v-3.51L29.558 28z" fill="#F78787"/></g><defs><clipPath id="clip0_2_1342"><path fill="#fff" transform="translate(14 14)" d="M0 0h28v28H0z"/></clipPath></defs></svg>