<svg width="160" height="160" fill="none" xmlns="http://www.w3.org/2000/svg"><rect x="1" y="1" width="158" height="158" rx="39" fill="#171E25"/><g filter="url(#filter0_d_2_2389)"><path fill="#10151A" d="M67 69h37v22H67z"/><path d="M80 52c-15.436 0-28 12.515-28 28 0 15.436 12.515 28 28 28s28-12.515 28-28c0-15.436-12.564-28-28-28zm20.501 29.51H87.499c-.876 4.285-5.015 7.06-9.3 6.184-4.286-.877-7.062-5.016-6.185-9.301.876-4.285 5.016-7.06 9.3-6.184 3.263.633 5.747 3.262 6.283 6.574H100.5a1.36 1.36 0 011.363 1.363 1.36 1.36 0 01-1.363 1.364z" fill="#008C73"/></g><rect x="1" y="1" width="158" height="158" rx="39" stroke="#2A3744" stroke-width="2"/><defs><filter id="filter0_d_2_2389" x="5" y="9" width="150" height="150" filterUnits="userSpaceOnUse" color-interpolation-filters="sRGB"><feFlood flood-opacity="0" result="BackgroundImageFix"/><feColorMatrix in="SourceAlpha" values="0 0 0 0 0 0 0 0 0 0 0 0 0 0 0 0 0 0 127 0" result="hardAlpha"/><feOffset dy="4"/><feGaussianBlur stdDeviation="23.5"/><feComposite in2="hardAlpha" operator="out"/><feColorMatrix values="0 0 0 0 0 0 0 0 0 0.54902 0 0 0 0 0.45098 0 0 0 0.3 0"/><feBlend in2="BackgroundImageFix" result="effect1_dropShadow_2_2389"/><feBlend in="SourceGraphic" in2="effect1_dropShadow_2_2389" result="shape"/></filter></defs></svg>