<svg width="281" height="54" viewBox="0 0 281 54" fill="none" xmlns="http://www.w3.org/2000/svg">
<path d="M85.9688 12.8787H90.2342L102.169 40.5842H96.5345L93.9518 34.2448H81.9382L79.4338 40.5842H73.9161L85.9688 12.8787ZM92.2299 30.0185L87.9645 18.7485L83.6209 30.0185H92.2299Z" fill="white"/>
<path d="M107.596 12.8787H112.527V36.1231H126.48V40.5842H107.596V12.8787Z" fill="white"/>
<path d="M130.236 12.8787H135.167V36.1231H149.12V40.5842H130.236V12.8787Z" fill="white"/>
<path d="M152.759 12.8787H157.69V40.5842H152.759V12.8787Z" fill="white"/>
<path d="M175.077 12.8787H179.342L191.277 40.5842H185.642L183.06 34.2448H171.046L168.542 40.5842H163.024L175.077 12.8787ZM181.338 30.0185L177.073 18.7485L172.729 30.0185H181.338Z" fill="white"/>
<path d="M196.704 12.8787H203.239L216.662 33.4622H216.74V12.8787H221.671V40.5842H215.409L201.713 19.3355H201.635V40.5842H196.704V12.8787Z" fill="white"/>
<path d="M249.216 19.3746C248.198 18.2789 247.207 17.5485 246.242 17.1832C245.302 16.818 244.35 16.6354 243.385 16.6354C241.95 16.6354 240.646 16.8963 239.472 17.418C238.324 17.9137 237.332 18.6181 236.498 19.5311C235.663 20.4181 235.011 21.4617 234.541 22.6617C234.098 23.8618 233.876 25.1531 233.876 26.5358C233.876 28.0228 234.098 29.3924 234.541 30.6446C235.011 31.8969 235.663 32.9795 236.498 33.8926C237.332 34.8057 238.324 35.5231 239.472 36.0449C240.646 36.5666 241.95 36.8275 243.385 36.8275C244.507 36.8275 245.589 36.5666 246.633 36.0449C247.702 35.497 248.694 34.6361 249.607 33.4622L253.677 36.3579C252.424 38.0797 250.898 39.332 249.098 40.1146C247.298 40.8972 245.381 41.2886 243.346 41.2886C241.206 41.2886 239.237 40.9494 237.437 40.2711C235.663 39.5668 234.124 38.5885 232.819 37.3362C231.541 36.0579 230.536 34.5318 229.806 32.7578C229.076 30.9838 228.71 29.0141 228.71 26.8488C228.71 24.6314 229.076 22.6226 229.806 20.8225C230.536 18.9963 231.541 17.4441 232.819 16.1658C234.124 14.8875 235.663 13.9092 237.437 13.2309C239.237 12.5265 241.206 12.1743 243.346 12.1743C245.224 12.1743 246.959 12.5135 248.55 13.1917C250.168 13.844 251.668 14.9657 253.05 16.5571L249.216 19.3746Z" fill="white"/>
<path d="M259.334 12.8787H280.296V17.3397H264.265V24.1487H279.591V28.6098H264.265V36.1231H281V40.5842H259.334V12.8787Z" fill="white"/>
<path fill-rule="evenodd" clip-rule="evenodd" d="M26.5228 53.0457C41.171 53.0457 53.0457 41.171 53.0457 26.5228C53.0457 11.8747 41.171 0 26.5228 0C11.8747 0 0 11.8747 0 26.5228C0 41.171 11.8747 53.0457 26.5228 53.0457ZM9.04297 39.332C9.04297 39.332 16.1258 32.2492 20.3453 25.0157C24.5649 17.7822 26.6746 9.04175 26.6746 9.04175C26.6746 9.04175 28.6337 17.4808 33.0039 25.0157C37.3742 32.5506 44.1556 39.332 44.1556 39.332C44.1556 39.332 36.1686 36.1674 26.6746 36.1674C17.1807 36.1674 9.04297 39.332 9.04297 39.332Z" fill="white"/>
</svg>
