<svg width="17" height="18" viewBox="0 0 17 18" fill="none" xmlns="http://www.w3.org/2000/svg">
<path fill-rule="evenodd" clip-rule="evenodd" d="M9.02254 0.642983C8.99475 0.375279 8.76914 0.171875 8.5 0.171875C8.23086 0.171875 8.00525 0.375279 7.97746 0.642983L7.56219 4.64329C7.39281 6.27498 6.10311 7.56469 4.47141 7.73407L0.471108 8.14933C0.203404 8.17712 0 8.40273 0 8.67188C0 8.94102 0.203404 9.16663 0.471108 9.19442L4.47141 9.60968C6.10311 9.77907 7.39281 11.0688 7.56219 12.7005L7.97746 16.7008C8.00525 16.9685 8.23086 17.1719 8.5 17.1719C8.76914 17.1719 8.99475 16.9685 9.02254 16.7008L9.43781 12.7005C9.60719 11.0688 10.8969 9.77907 12.5286 9.60968L16.5289 9.19442C16.7966 9.16663 17 8.94102 17 8.67188C17 8.40273 16.7966 8.17712 16.5289 8.14933L12.5286 7.73407C10.8969 7.56469 9.60719 6.27498 9.43781 4.64329L9.02254 0.642983Z" fill="#FFC803"/>
</svg>
