<svg width="160" height="160" fill="none" xmlns="http://www.w3.org/2000/svg"><rect x="1" y="1" width="158" height="158" rx="39" fill="#171E25"/><g filter="url(#filter0_d_2_1594)"><circle cx="80" cy="80" r="28" fill="url(#paint0_linear_2_1594)"/><path d="M79.924 63.2l-.223.756V85.91l.223.223 10.19-6.024L79.924 63.2z" fill="#10151A"/><path d="M79.924 63.2l-10.19 16.908 10.19 6.024V63.2zm0 24.86l-.126.154v7.82l.126.366L90.12 82.04l-10.196 6.02z" fill="#10151A"/><path d="M79.924 96.4v-8.34l-10.19-6.02 10.19 14.36zm0-10.268l10.19-6.024-10.19-4.632v10.656zm-10.19-6.024l10.19 6.024V75.476l-10.19 4.632z" fill="#10151A"/></g><rect x="1" y="1" width="158" height="158" rx="39" stroke="#2A3744" stroke-width="2"/><defs><linearGradient id="paint0_linear_2_1594" x1="80" y1="52" x2="80" y2="108" gradientUnits="userSpaceOnUse"><stop stop-color="#7993F9"/><stop offset="1" stop-color="#627EEA"/></linearGradient><filter id="filter0_d_2_1594" x="5" y="5" width="150" height="150" filterUnits="userSpaceOnUse" color-interpolation-filters="sRGB"><feFlood flood-opacity="0" result="BackgroundImageFix"/><feColorMatrix in="SourceAlpha" values="0 0 0 0 0 0 0 0 0 0 0 0 0 0 0 0 0 0 127 0" result="hardAlpha"/><feOffset/><feGaussianBlur stdDeviation="23.5"/><feComposite in2="hardAlpha" operator="out"/><feColorMatrix values="0 0 0 0 0.384314 0 0 0 0 0.494118 0 0 0 0 0.917647 0 0 0 0.3 0"/><feBlend in2="BackgroundImageFix" result="effect1_dropShadow_2_1594"/><feBlend in="SourceGraphic" in2="effect1_dropShadow_2_1594" result="shape"/></filter></defs></svg>