<svg width="160" height="160" viewBox="0 0 160 160" fill="none" xmlns="http://www.w3.org/2000/svg">
<rect x="1" y="1" width="158" height="158" rx="39" fill="#171E25"/>
<g filter="url(#filter0_d_2_1594)">
<circle cx="80" cy="80" r="28" fill="url(#paint0_linear_2_1594)"/>
<path d="M79.9239 63.2L79.7012 63.9565V85.9093L79.9239 86.1316L90.1139 80.1081L79.9239 63.2Z" fill="#10151A"/>
<path d="M79.9242 63.2L69.7339 80.1082L79.9242 86.1316V75.4763V63.2Z" fill="#10151A"/>
<path d="M79.9239 88.0609L79.7984 88.214V96.0339L79.9239 96.4004L90.1202 82.0406L79.9239 88.0609Z" fill="#10151A"/>
<path d="M79.9239 96.4004V88.0609L69.7336 82.0406L79.9239 96.4004Z" fill="#10151A"/>
<path d="M79.9238 86.1316L90.1138 80.1082L79.9238 75.4763V86.1316Z" fill="#10151A"/>
<path d="M69.7336 80.1082L79.9239 86.1316V75.4763L69.7336 80.1082Z" fill="#10151A"/>
</g>
<rect x="1" y="1" width="158" height="158" rx="39" stroke="#2A3744" stroke-width="2"/>
<defs>
<filter id="filter0_d_2_1594" x="5" y="5" width="150" height="150" filterUnits="userSpaceOnUse" color-interpolation-filters="sRGB">
<feFlood flood-opacity="0" result="BackgroundImageFix"/>
<feColorMatrix in="SourceAlpha" type="matrix" values="0 0 0 0 0 0 0 0 0 0 0 0 0 0 0 0 0 0 127 0" result="hardAlpha"/>
<feOffset/>
<feGaussianBlur stdDeviation="23.5"/>
<feComposite in2="hardAlpha" operator="out"/>
<feColorMatrix type="matrix" values="0 0 0 0 0.384314 0 0 0 0 0.494118 0 0 0 0 0.917647 0 0 0 0.3 0"/>
<feBlend mode="normal" in2="BackgroundImageFix" result="effect1_dropShadow_2_1594"/>
<feBlend mode="normal" in="SourceGraphic" in2="effect1_dropShadow_2_1594" result="shape"/>
</filter>
<linearGradient id="paint0_linear_2_1594" x1="80" y1="52" x2="80" y2="108" gradientUnits="userSpaceOnUse">
<stop stop-color="#7993F9"/>
<stop offset="1" stop-color="#627EEA"/>
</linearGradient>
</defs>
</svg>
