<svg width="160" height="160" fill="none" xmlns="http://www.w3.org/2000/svg"><rect x="1" y="1" width="158" height="158" rx="39" fill="#171E25"/><g filter="url(#filter0_d_2_2380)"><circle cx="80" cy="80.05" r="28.05" fill="url(#paint0_linear_2_2380)"/><path d="M88.416 74.417c-.598-.344-1.367-.344-2.05 0l-4.786 2.838-3.246 1.806-4.7 2.839c-.598.344-1.367.344-2.05 0l-3.675-2.237a2.1 2.1 0 01-1.025-1.806v-4.3c0-.688.342-1.377 1.025-1.806l3.674-2.15c.598-.345 1.367-.345 2.051 0l3.674 2.236a2.099 2.099 0 011.025 1.806v2.838l3.247-1.892v-2.925c0-.688-.341-1.376-1.025-1.806l-6.836-4.042c-.598-.344-1.367-.344-2.05 0l-7.007 4.128c-.683.344-1.025 1.032-1.025 1.72v8.085c0 .688.342 1.377 1.025 1.807l6.921 4.042c.598.344 1.367.344 2.051 0l4.7-2.752 3.246-1.892 4.7-2.753c.598-.344 1.367-.344 2.05 0l3.675 2.15a2.1 2.1 0 011.025 1.807v4.3c0 .688-.342 1.376-1.025 1.806l-3.589 2.15c-.598.345-1.367.345-2.05 0l-3.675-2.15a2.099 2.099 0 01-1.025-1.806v-2.752l-3.247 1.892v2.838c0 .688.342 1.376 1.025 1.807l6.921 4.042c.598.344 1.367.344 2.051 0l6.921-4.042a2.1 2.1 0 001.025-1.807v-8.17c0-.689-.341-1.377-1.025-1.807l-6.921-4.042z" fill="#10151A"/></g><rect x="1" y="1" width="158" height="158" rx="39" stroke="#2A3744" stroke-width="2"/><defs><linearGradient id="paint0_linear_2_2380" x1="80" y1="52" x2="80" y2="108.101" gradientUnits="userSpaceOnUse"><stop stop-color="#965EF4"/><stop offset="1" stop-color="#8247E5"/></linearGradient><filter id="filter0_d_2_2380" x="4.95" y="5" width="150.101" height="150.101" filterUnits="userSpaceOnUse" color-interpolation-filters="sRGB"><feFlood flood-opacity="0" result="BackgroundImageFix"/><feColorMatrix in="SourceAlpha" values="0 0 0 0 0 0 0 0 0 0 0 0 0 0 0 0 0 0 127 0" result="hardAlpha"/><feOffset/><feGaussianBlur stdDeviation="23.5"/><feComposite in2="hardAlpha" operator="out"/><feColorMatrix values="0 0 0 0 0.509804 0 0 0 0 0.278431 0 0 0 0 0.898039 0 0 0 0.3 0"/><feBlend in2="BackgroundImageFix" result="effect1_dropShadow_2_2380"/><feBlend in="SourceGraphic" in2="effect1_dropShadow_2_2380" result="shape"/></filter></defs></svg>