<svg width="160" height="160" fill="none" xmlns="http://www.w3.org/2000/svg"><rect x="1" y="1" width="158" height="158" rx="39" fill="#171E25"/><g filter="url(#filter0_d_2_2398)"><rect x="52" y="52" width="56" height="56" rx="28" fill="url(#paint0_linear_2_2398)"/><path d="M67.847 77.827c.36.74 1.252 2.2 1.252 2.2l10.311-16.36-10.063 6.745a4.27 4.27 0 00-1.433 1.513 6.77 6.77 0 00-.713 2.944 6.762 6.762 0 00.646 2.958zm-4.086 5.387a10.685 10.685 0 001.351 4.469 11.15 11.15 0 003.154 3.534l11.13 7.45s-6.964-9.633-12.838-19.219a9.426 9.426 0 01-1.18-3.269 5.025 5.025 0 010-1.57c-.153.273-.45.831-.45.831a12.324 12.324 0 00-1.203 3.697 21.695 21.695 0 00.036 4.077zm28.397 1.293c-.36-.74-1.252-2.201-1.252-2.201l-10.311 16.36 10.063-6.74a4.284 4.284 0 001.432-1.513 6.76 6.76 0 00.715-2.946 6.763 6.763 0 00-.647-2.96zm4.085-5.387a10.683 10.683 0 00-1.35-4.47 11.149 11.149 0 00-3.154-3.534l-11.13-7.45s6.959 9.634 12.837 19.22a9.424 9.424 0 011.176 3.268 5.04 5.04 0 010 1.57c.153-.273.45-.83.45-.83a12.325 12.325 0 001.203-3.697 21.694 21.694 0 00-.032-4.078z" fill="#10151A"/><path d="M67.914 71.925a4.27 4.27 0 011.433-1.513l10.063-6.745L69.1 80.032s-.902-1.462-1.253-2.201a6.762 6.762 0 01-.647-2.96 6.77 6.77 0 01.714-2.946zm-4.153 11.289a10.685 10.685 0 001.351 4.469 11.15 11.15 0 003.154 3.534l11.13 7.45s-6.964-9.633-12.838-19.219a9.426 9.426 0 01-1.18-3.269 5.025 5.025 0 010-1.57c-.153.273-.45.831-.45.831a12.324 12.324 0 00-1.203 3.697 21.695 21.695 0 00.036 4.077zm28.379 1.297c-.36-.74-1.252-2.2-1.252-2.2L80.595 98.666l10.063-6.74a4.284 4.284 0 001.432-1.514 6.76 6.76 0 00.715-2.946 6.763 6.763 0 00-.647-2.96l-.018.004zm4.085-5.387a10.685 10.685 0 00-1.35-4.47 11.15 11.15 0 00-3.154-3.533l-11.113-7.454s6.96 9.633 12.838 19.218a9.424 9.424 0 011.176 3.27c.082.52.082 1.048 0 1.569.153-.273.45-.83.45-.83a12.325 12.325 0 001.203-3.697 21.694 21.694 0 00-.032-4.078l-.018.005z" fill="#10151A"/></g><rect x="1" y="1" width="158" height="158" rx="39" stroke="#2A3744" stroke-width="2"/><defs><linearGradient id="paint0_linear_2_2398" x1="80" y1="52" x2="80" y2="108" gradientUnits="userSpaceOnUse"><stop stop-color="#A09FFE"/><stop offset="1" stop-color="#4ACEF7"/></linearGradient><filter id="filter0_d_2_2398" x="5" y="5" width="150" height="150" filterUnits="userSpaceOnUse" color-interpolation-filters="sRGB"><feFlood flood-opacity="0" result="BackgroundImageFix"/><feColorMatrix in="SourceAlpha" values="0 0 0 0 0 0 0 0 0 0 0 0 0 0 0 0 0 0 127 0" result="hardAlpha"/><feOffset/><feGaussianBlur stdDeviation="23.5"/><feComposite in2="hardAlpha" operator="out"/><feColorMatrix values="0 0 0 0 0.458824 0 0 0 0 0.721569 0 0 0 0 0.984314 0 0 0 0.3 0"/><feBlend in2="BackgroundImageFix" result="effect1_dropShadow_2_2398"/><feBlend in="SourceGraphic" in2="effect1_dropShadow_2_2398" result="shape"/></filter></defs></svg>