<svg width="56" height="56" fill="none" xmlns="http://www.w3.org/2000/svg"><rect width="56" height="56" rx="28" fill="#9277FF" fill-opacity=".15"/><path d="M24.854 18.637a.666.666 0 00-.728-.572l-.209.022s-3.094.338-5.353 2.153h-.03l-.028.029c-.507.463-.729 1.038-1.077 1.878a27.51 27.51 0 00-1.047 3.09c-.652 2.365-1.183 5.232-1.183 7.858v.222l.111.222c.816 1.434 2.27 2.346 3.616 2.978 1.347.633 2.505.966 3.311.995a.865.865 0 00.794-.425l.008-.014.965-1.71c1.024.233 2.201.387 3.558.387 1.356 0 2.534-.154 3.558-.386l.965 1.709.008.014c.164.279.47.443.793.425.802-.029 1.965-.362 3.312-.995 1.347-.632 2.795-1.544 3.616-2.978l.11-.222v-.222c0-2.626-.53-5.493-1.187-7.864a27.52 27.52 0 00-1.047-3.09c-.348-.84-.57-1.409-1.077-1.877l-.029-.029h-.029c-2.259-1.815-5.353-2.153-5.353-2.153l-.173-.017a.71.71 0 00-.769.577s-.255 1.616-.415 2.35c-.999-.14-1.815-.17-2.288-.17-.473 0-1.289.03-2.288.165-.16-.734-.415-2.35-.415-2.35zm-1.463 1.38c.039.126.255 1.188.29 1.29-.888.22-1.932.539-2.877.994-.44.212-.566.76-.306 1.174.257.41.797.532 1.234.324 2.201-1.044 4.92-1.21 5.825-1.21.905 0 3.62.166 5.824 1.21.438.208.978.086 1.236-.325.26-.413.135-.961-.305-1.174-.945-.458-1.99-.776-2.878-.994.034-.101.25-1.163.29-1.288.825.164 2.393.545 3.697 1.573-.005.005.333.512.632 1.241.31.748.657 1.743.966 2.868.598 2.152 1.067 4.779 1.105 7.09-.555.85-1.588 1.613-2.674 2.125a8.601 8.601 0 01-2.153.69l-.44-.743c.261-.097.522-.203.744-.304a10.65 10.65 0 001.386-.735c.407-.257.451-.8.134-1.162-.32-.366-.893-.412-1.314-.168-.243.14-.55.3-.925.467-1.159.511-2.926 1.018-5.325 1.018s-4.166-.511-5.324-1.018a9.516 9.516 0 01-.924-.466c-.422-.244-.996-.198-1.317.168-.317.362-.273.904.133 1.162.344.218.81.48 1.388.734.222.101.483.207.744.304l-.44.743a8.6 8.6 0 01-2.152-.69c-1.091-.512-2.12-1.274-2.675-2.124.039-2.312.507-4.934 1.106-7.091.309-1.125.656-2.12.965-2.868.304-.729.642-1.236.632-1.24 1.304-1.029 2.873-1.405 3.698-1.574zm1.077 6.016c-.681 0-1.284.39-1.656.883-.367.492-.55 1.1-.55 1.767 0 .666.183 1.274.55 1.767.367.492.97.883 1.656.883.685 0 1.284-.391 1.655-.883.367-.493.55-1.101.55-1.767 0-.666-.183-1.275-.55-1.767-.371-.492-.975-.883-1.655-.883zm6.179 0c-.681 0-1.284.39-1.656.883-.367.492-.55 1.1-.55 1.767 0 .666.183 1.274.55 1.767.367.492.97.883 1.656.883.685 0 1.284-.391 1.655-.883.367-.493.55-1.101.55-1.767 0-.666-.183-1.275-.55-1.767-.371-.492-.975-.883-1.655-.883zm-6.18 1.766c.049 0 .112.02.223.165.11.15.222.405.222.719 0 .309-.111.57-.222.72-.111.149-.174.163-.222.163-.049 0-.111-.02-.222-.164a1.234 1.234 0 01-.223-.72c0-.308.112-.569.223-.718.11-.15.173-.165.222-.165zm6.18 0c.048 0 .11.02.222.165.11.15.222.405.222.719 0 .309-.111.57-.222.72-.111.149-.174.163-.222.163-.049 0-.111-.02-.223-.164a1.234 1.234 0 01-.221-.72c0-.308.11-.569.221-.718.112-.15.174-.165.223-.165z" fill="#9277FF"/></svg>